<svg xmlns="http://www.w3.org/2000/svg" xmlns:xlink="http://www.w3.org/1999/xlink" viewBox="0 0 394 240"><defs><style>.cls-1,.cls-3,.cls-5,.cls-8{fill:none;}.cls-2,.cls-4{fill:#fff;}.cls-3{stroke:#006984;}.cls-3,.cls-4,.cls-5,.cls-8{stroke-miterlimit:10;stroke-width:2px;}.cls-4,.cls-5{stroke:#000;}.cls-6{fill:#0054a2;}.cls-7{clip-path:url(#clip-path);}.cls-8{stroke:#ca0022;stroke-dasharray:3 3;}.cls-9{fill:#ca0022;}</style><clipPath id="clip-path"><path class="cls-1" d="M9,58v80H80V58Zm17,67c-4.42,0-8-2.69-8-6s3.58-6,8-6,8,2.69,8,6S30.42,125,26,125Z"/></clipPath></defs><g id="Layer_2" data-name="Layer 2"><path class="cls-2" d="M141.8,17.34a19.14,19.14,0,0,0-4,.43A19,19,0,0,0,103.86,9a10.22,10.22,0,0,0-13.15,9.83,11.24,11.24,0,0,0,.14,1.65A18.42,18.42,0,0,0,97.9,55.71v0h43.9a19.2,19.2,0,0,0,0-38.4Z"/><path class="cls-3" d="M141.8,17.34a19.14,19.14,0,0,0-4,.43A19,19,0,0,0,103.86,9a10.22,10.22,0,0,0-13.15,9.83,11.24,11.24,0,0,0,.14,1.65A18.42,18.42,0,0,0,97.9,55.71v0h43.9a19.2,19.2,0,0,0,0-38.4Z"/><rect class="cls-2" x="1" y="162" width="78" height="62"/><path d="M78,163v60H2V163H78m2-2H0v64H80V161Z"/><rect class="cls-2" x="1" y="162" width="78" height="8"/><path d="M78,163v6H2v-6H78m2-2H0v10H80V161Z"/><line class="cls-4" x1="14" y1="166" x2="76" y2="166"/><rect x="4" y="165" width="2" height="2"/><rect x="7" y="165" width="2" height="2"/><rect class="cls-2" x="206" y="162" width="78" height="62"/><path d="M283,163v60H207V163h76m2-2H205v64h80V161Z"/><rect class="cls-2" x="206" y="162" width="78" height="8"/><path d="M283,163v6H207v-6h76m2-2H205v10h80V161Z"/><line class="cls-4" x1="219" y1="166" x2="281" y2="166"/><rect x="209" y="165" width="2" height="2"/><rect x="212" y="165" width="2" height="2"/><rect class="cls-2" x="296" y="162" width="78" height="62"/><path d="M373,163v60H297V163h76m2-2H295v64h80V161Z"/><rect class="cls-2" x="296" y="162" width="78" height="8"/><path d="M373,163v6H297v-6h76m2-2H295v10h80V161Z"/><line class="cls-4" x1="309" y1="166" x2="371" y2="166"/><rect x="299" y="165" width="2" height="2"/><rect x="302" y="165" width="2" height="2"/></g><g id="Layer_1" data-name="Layer 1"><rect class="cls-2" x="102" y="49" width="78" height="18"/><path d="M179,50V66H103V50h76m2-2H101V68h80V48Z"/><path d="M114,56v4h-4V56h4m2-2h-8v8h8V54Z"/><path d="M127,56v4h-4V56h4m2-2h-8v8h8V54Z"/><line class="cls-5" x1="155" y1="52" x2="155" y2="63"/><line class="cls-5" x1="137" y1="52" x2="137" y2="63"/><line class="cls-5" x1="146" y1="52" x2="146" y2="63"/><line class="cls-5" x1="173" y1="52" x2="173" y2="63"/><line class="cls-5" x1="164" y1="52" x2="164" y2="63"/><rect class="cls-2" x="102" y="25" width="78" height="18"/><path d="M179,26V42H103V26h76m2-2H101V44h80V24Z"/><path d="M114,32v4h-4V32h4m2-2h-8v8h8V30Z"/><path d="M127,32v4h-4V32h4m2-2h-8v8h8V30Z"/><line class="cls-5" x1="155" y1="28" x2="155" y2="39"/><line class="cls-5" x1="137" y1="28" x2="137" y2="39"/><line class="cls-5" x1="146" y1="28" x2="146" y2="39"/><line class="cls-5" x1="173" y1="28" x2="173" y2="39"/><line class="cls-5" x1="164" y1="28" x2="164" y2="39"/><path d="M11.41,140.05l-1,1.14a2.15,2.15,0,0,0-1.49-.6c-1.05,0-1.8.85-1.8,2.89s.74,2.85,1.84,2.85a2.59,2.59,0,0,0,1.62-.69l.88,1.15a3.64,3.64,0,0,1-2.6,1.06c-2.28,0-3.8-1.53-3.8-4.37s1.61-4.34,3.74-4.34A3.67,3.67,0,0,1,11.41,140.05Z"/><path d="M17.84,143v4.65H16v-4.33c0-.67-.24-.85-.6-.85s-.77.3-1.11.82v4.36H12.35v-8.9l1.89-.19V142a2.32,2.32,0,0,1,1.84-.89A1.69,1.69,0,0,1,17.84,143Z"/><path d="M24.76,146.58l-.39,1.24a1.6,1.6,0,0,1-1.54-.92,2.14,2.14,0,0,1-1.91.95,1.92,1.92,0,0,1-2.08-2c0-1.39,1.06-2.14,3-2.14h.64v-.28c0-.75-.3-1-1.08-1a5.87,5.87,0,0,0-1.66.33l-.43-1.24a7.18,7.18,0,0,1,2.39-.47c1.85,0,2.64.78,2.64,2.25v2.47C24.33,146.3,24.46,146.48,24.76,146.58Zm-2.29-.69v-1.13H22c-.87,0-1.29.3-1.29.94a.71.71,0,0,0,.75.8A1.12,1.12,0,0,0,22.47,145.89Z"/><path d="M31.34,143v4.65H29.45v-4.33c0-.67-.23-.85-.6-.85s-.77.3-1.11.83v4.35H25.85v-6.37H27.5l.14.76a2.4,2.4,0,0,1,1.94-1A1.69,1.69,0,0,1,31.34,143Z"/><path d="M36.8,141.91a1.64,1.64,0,0,1,1.2,1.64c0,1.23-1,2.13-2.67,2.13a3.45,3.45,0,0,1-.74-.07.41.41,0,0,0-.2.36c0,.19.09.39.7.39h1c1.48,0,2.43.78,2.43,1.84,0,1.31-1.15,2.11-3.33,2.11-2.41,0-3-.79-3-2.05h1.7c0,.55.24.79,1.39.79s1.38-.31,1.38-.72-.27-.62-.91-.62h-.92c-1.39,0-2-.57-2-1.26a1.51,1.51,0,0,1,.76-1.22,1.87,1.87,0,0,1-1.14-1.82c0-1.44,1.13-2.33,2.79-2.33a5,5,0,0,0,3-.83l.45,1.4A5,5,0,0,1,36.8,141.91Zm-2.52,1.47a1,1,0,0,0,1,1.08c.63,0,1-.37,1-1.1s-.32-1-1-1A.93.93,0,0,0,34.28,143.38Z"/><path d="M44.72,145H40.78c.13,1.14.67,1.46,1.45,1.46a2.55,2.55,0,0,0,1.52-.57l.78,1.06a3.94,3.94,0,0,1-2.48.88,3,3,0,0,1-3.21-3.35c0-1.91,1-3.42,3-3.42s2.94,1.2,2.94,3.26A5.07,5.07,0,0,1,44.72,145ZM42.9,143.8c0-.86-.28-1.46-1-1.46s-1,.41-1.09,1.54H42.9Z"/><path d="M30.49,178.68c0,1.17-.9,1.57-2.18,1.57H26.79v-5.51H28.1c1.35,0,2.15.43,2.15,1.39a1.22,1.22,0,0,1-1,1.21C29.86,177.45,30.49,177.75,30.49,178.68Zm-2.94-1.6h.83c.62,0,1.1-.31,1.1-.89s-.49-.85-1.3-.85h-.63Zm2.14,1.6c0-.77-.57-1-1.23-1h-.91v2h.76C29.11,179.64,29.69,179.48,29.69,178.68Z"/><path d="M33.86,176l-.13.72a1.44,1.44,0,0,0-.37-.05c-.53,0-.83.38-1,1.18v2.41h-.73V176h.63l.07.85a1.2,1.2,0,0,1,1.13-.95A1.92,1.92,0,0,1,33.86,176Z"/><path d="M38.08,178.14c0,1.3-.69,2.21-1.88,2.21s-1.88-.87-1.88-2.2.69-2.21,1.89-2.21S38.08,176.8,38.08,178.14Zm-3,0c0,1.09.39,1.61,1.09,1.61s1.09-.52,1.09-1.62-.39-1.61-1.08-1.61S35.11,177,35.11,178.15Z"/><path d="M42.07,180.25l-.74-3.55-.75,3.55h-1l-1-4.21h.73l.76,3.7.83-3.7h.83l.79,3.7.77-3.7H44l-1,4.21Z"/><path d="M47.53,176.42l-.32.49a1.82,1.82,0,0,0-1.09-.39c-.48,0-.78.22-.78.56s.23.5.91.68c.88.22,1.4.57,1.4,1.31s-.81,1.28-1.67,1.28a2.34,2.34,0,0,1-1.59-.55l.41-.47a1.77,1.77,0,0,0,1.17.43c.55,0,.9-.25.9-.62s-.21-.6-1-.82-1.27-.63-1.27-1.23.64-1.15,1.52-1.15A2.26,2.26,0,0,1,47.53,176.42Z"/><path d="M51.85,178.4H49.17c.07,1,.53,1.35,1.13,1.35a1.76,1.76,0,0,0,1.1-.37l.32.44a2.3,2.3,0,0,1-1.47.53c-1.18,0-1.87-.83-1.87-2.16s.67-2.25,1.76-2.25,1.73.79,1.73,2.08C51.87,178.16,51.86,178.3,51.85,178.4Zm-.71-.6c0-.82-.33-1.28-1-1.28s-.93.4-1,1.33h2Z"/><path d="M55.33,176l-.13.72a1.44,1.44,0,0,0-.37-.05c-.53,0-.83.38-1,1.18v2.41h-.73V176h.63l.07.85a1.21,1.21,0,0,1,1.13-.95A1.84,1.84,0,0,1,55.33,176Z"/><path d="M105.57,15.29l-.44.48a1.73,1.73,0,0,0-1.23-.5c-.56,0-1,.26-1,.78s.22.69,1.21,1,1.63.62,1.63,1.68-.73,1.63-2,1.63a2.62,2.62,0,0,1-1.88-.71l.44-.49a2,2,0,0,0,1.43.57c.65,0,1.18-.32,1.18-1s-.26-.78-1.19-1.06-1.63-.74-1.63-1.59a1.54,1.54,0,0,1,1.73-1.44A2.33,2.33,0,0,1,105.57,15.29Z"/><path d="M110,18.4H107.3c.08,1,.53,1.35,1.14,1.35a1.73,1.73,0,0,0,1.09-.37l.32.44a2.26,2.26,0,0,1-1.47.53c-1.17,0-1.86-.83-1.86-2.16s.66-2.25,1.75-2.25S110,16.73,110,18C110,18.16,110,18.3,110,18.4Zm-.71-.6c0-.82-.33-1.28-1-1.28s-.93.4-1,1.33h2Z"/><path d="M113.47,16l-.14.72a1.3,1.3,0,0,0-.36-.05c-.53,0-.83.38-1,1.18v2.41h-.74V16h.64l.07.85a1.19,1.19,0,0,1,1.12-1A1.93,1.93,0,0,1,113.47,16Z"/><path d="M115.17,20.25,113.71,16h.8l1.11,3.56L116.71,16h.78l-1.43,4.21Z"/><path d="M121.41,18.4h-2.68c.07,1,.53,1.35,1.13,1.35a1.76,1.76,0,0,0,1.1-.37l.32.44a2.3,2.3,0,0,1-1.47.53c-1.18,0-1.87-.83-1.87-2.16s.67-2.25,1.76-2.25,1.73.79,1.73,2.08C121.43,18.16,121.42,18.3,121.41,18.4Zm-.71-.6c0-.82-.33-1.28-1-1.28s-.93.4-1,1.33h2Z"/><path d="M124.89,16l-.13.72a1.44,1.44,0,0,0-.37-.05c-.53,0-.83.38-1,1.18v2.41h-.73V16h.63l.07.85a1.21,1.21,0,0,1,1.13-1A1.84,1.84,0,0,1,124.89,16Z"/><path d="M10.49,121.25l-1-4.61-1,4.61H7.5l-1.12-5.51h.74L8,120.59l1.06-4.85h.81L11,120.59l.92-4.85h.69l-1.12,5.51Z"/><path d="M16.47,119.4H13.78c.08,1,.53,1.35,1.14,1.35a1.76,1.76,0,0,0,1.1-.37l.31.44a2.26,2.26,0,0,1-1.47.53c-1.17,0-1.86-.83-1.86-2.16s.66-2.25,1.75-2.25,1.74.79,1.74,2.08C16.49,119.16,16.48,119.3,16.47,119.4Zm-.71-.6c0-.82-.33-1.28-1-1.28s-.93.4-1,1.33h2Z"/><path d="M21.2,119.14c0,1.32-.63,2.21-1.66,2.21a1.42,1.42,0,0,1-1.12-.56l-.07.46H17.7v-5.91l.74-.09v2.31a1.42,1.42,0,0,1,1.19-.62C20.58,116.94,21.2,117.73,21.2,119.14Zm-.79,0c0-1.2-.4-1.62-1-1.62a1.2,1.2,0,0,0-1,.66v2a1.14,1.14,0,0,0,.93.56C20,120.76,20.41,120.29,20.41,119.14Z"/><path d="M25,117.42l-.32.49a1.8,1.8,0,0,0-1.09-.39c-.48,0-.77.22-.77.56s.22.5.9.68c.89.22,1.4.57,1.4,1.31s-.81,1.28-1.66,1.28a2.32,2.32,0,0,1-1.59-.55l.4-.47a1.79,1.79,0,0,0,1.17.43c.55,0,.91-.25.91-.62s-.21-.6-1-.82-1.27-.63-1.27-1.23.65-1.15,1.52-1.15A2.26,2.26,0,0,1,25,117.42Z"/><path d="M29.65,119.14c0,1.3-.69,2.21-1.88,2.21s-1.88-.87-1.88-2.2.69-2.21,1.89-2.21S29.65,117.8,29.65,119.14Zm-3,0c0,1.09.38,1.61,1.09,1.61s1.08-.52,1.08-1.62-.38-1.61-1.07-1.61S26.68,118,26.68,119.15Z"/><path d="M33.69,117.4l-.36.48a1.32,1.32,0,0,0-.9-.33c-.66,0-1.08.52-1.08,1.61s.42,1.56,1.08,1.56a1.37,1.37,0,0,0,.9-.34l.36.5a2,2,0,0,1-1.29.47c-1.14,0-1.84-.81-1.84-2.17s.7-2.24,1.84-2.24A1.88,1.88,0,0,1,33.69,117.4Z"/><path d="M34.69,121.25v-5.91l.73-.09v6Zm3.33,0h-.88L35.47,119,37,117h.83L36.3,118.9Z"/><path d="M41.87,119.4H39.18c.08,1,.53,1.35,1.14,1.35a1.73,1.73,0,0,0,1.09-.37l.32.44a2.26,2.26,0,0,1-1.47.53c-1.17,0-1.86-.83-1.86-2.16s.66-2.25,1.75-2.25,1.74.79,1.74,2.08C41.89,119.16,41.88,119.3,41.87,119.4Zm-.71-.6c0-.82-.33-1.28-1-1.28s-.93.4-1,1.33h2Z"/><path d="M44.29,121.35a1.06,1.06,0,0,1-1.14-1.2V117.6h-.73V117h.73v-1l.74-.09v1h1l-.08.56h-.92v2.52c0,.42.13.62.5.62a1.08,1.08,0,0,0,.56-.18l.28.5A1.61,1.61,0,0,1,44.29,121.35Z"/><circle class="cls-6" cx="41" cy="197" r="12"/><path d="M41,186a11,11,0,1,1-11,11,11,11,0,0,1,11-11m0-2a13,13,0,1,0,13,13,13,13,0,0,0-13-13Z"/><path class="cls-2" d="M38.3,199.2h2v-5l-1.67,1L37.79,194l2.68-1.63h1.71v6.86h1.54v1.45H38.3Z"/><path d="M235.49,178.68c0,1.17-.9,1.57-2.18,1.57h-1.52v-5.51h1.31c1.35,0,2.15.43,2.15,1.39a1.22,1.22,0,0,1-1,1.21C234.86,177.45,235.49,177.75,235.49,178.68Zm-2.94-1.6h.83c.62,0,1.1-.31,1.1-.89s-.49-.85-1.3-.85h-.63Zm2.14,1.6c0-.77-.57-1-1.23-1h-.91v2h.76C234.11,179.64,234.69,179.48,234.69,178.68Z"/><path d="M238.86,176l-.13.72a1.44,1.44,0,0,0-.37-.05c-.53,0-.83.38-1,1.18v2.41h-.73V176h.63l.07.85a1.2,1.2,0,0,1,1.13-.95A1.92,1.92,0,0,1,238.86,176Z"/><path d="M243.08,178.14c0,1.3-.69,2.21-1.88,2.21s-1.88-.87-1.88-2.2.69-2.21,1.89-2.21S243.08,176.8,243.08,178.14Zm-3,0c0,1.09.39,1.61,1.09,1.61s1.09-.52,1.09-1.62-.39-1.61-1.08-1.61S240.11,177,240.11,178.15Z"/><path d="M247.07,180.25l-.74-3.55-.75,3.55h-1l-1-4.21h.73l.76,3.7.83-3.7h.83l.79,3.7.77-3.7h.7l-1,4.21Z"/><path d="M252.53,176.42l-.32.49a1.82,1.82,0,0,0-1.09-.39c-.48,0-.78.22-.78.56s.23.5.91.68c.88.22,1.4.57,1.4,1.31s-.81,1.28-1.67,1.28a2.34,2.34,0,0,1-1.59-.55l.41-.47a1.77,1.77,0,0,0,1.17.43c.55,0,.9-.25.9-.62s-.21-.6-1-.82-1.27-.63-1.27-1.23.64-1.15,1.52-1.15A2.26,2.26,0,0,1,252.53,176.42Z"/><path d="M256.85,178.4h-2.68c.07,1,.53,1.35,1.13,1.35a1.76,1.76,0,0,0,1.1-.37l.32.44a2.3,2.3,0,0,1-1.47.53c-1.18,0-1.87-.83-1.87-2.16s.67-2.25,1.76-2.25,1.73.79,1.73,2.08C256.87,178.16,256.86,178.3,256.85,178.4Zm-.71-.6c0-.82-.33-1.28-1-1.28s-.93.4-1,1.33h2Z"/><path d="M260.33,176l-.13.72a1.44,1.44,0,0,0-.37-.05c-.53,0-.83.38-1,1.18v2.41h-.73V176h.63l.07.85a1.21,1.21,0,0,1,1.13-.95A1.84,1.84,0,0,1,260.33,176Z"/><circle class="cls-6" cx="246" cy="197" r="12"/><path d="M246,186a11,11,0,1,1-11,11,11,11,0,0,1,11-11m0-2a13,13,0,1,0,13,13,13,13,0,0,0-13-13Z"/><path class="cls-2" d="M245.07,199.19h3.53l-.2,1.46h-5.54V199.3c2.72-2.64,3.6-3.64,3.6-4.62a1,1,0,0,0-1.11-1.08,1.81,1.81,0,0,0-1.48.84l-1.18-.89a3.44,3.44,0,0,1,2.87-1.43c1.88,0,2.85,1.09,2.85,2.39S247.59,196.93,245.07,199.19Z"/><path d="M325.49,178.68c0,1.17-.9,1.57-2.18,1.57h-1.52v-5.51h1.31c1.35,0,2.15.43,2.15,1.39a1.22,1.22,0,0,1-1,1.21C324.86,177.45,325.49,177.75,325.49,178.68Zm-2.94-1.6h.83c.62,0,1.1-.31,1.1-.89s-.49-.85-1.3-.85h-.63Zm2.14,1.6c0-.77-.57-1-1.23-1h-.91v2h.76C324.11,179.64,324.69,179.48,324.69,178.68Z"/><path d="M328.86,176l-.13.72a1.44,1.44,0,0,0-.37-.05c-.53,0-.83.38-1,1.18v2.41h-.73V176h.63l.07.85a1.2,1.2,0,0,1,1.13-.95A1.92,1.92,0,0,1,328.86,176Z"/><path d="M333.08,178.14c0,1.3-.69,2.21-1.88,2.21s-1.88-.87-1.88-2.2.69-2.21,1.89-2.21S333.08,176.8,333.08,178.14Zm-3,0c0,1.09.39,1.61,1.09,1.61s1.09-.52,1.09-1.62-.39-1.61-1.08-1.61S330.11,177,330.11,178.15Z"/><path d="M337.07,180.25l-.74-3.55-.75,3.55h-1l-1-4.21h.73l.76,3.7.83-3.7h.83l.79,3.7.77-3.7h.7l-1,4.21Z"/><path d="M342.53,176.42l-.32.49a1.82,1.82,0,0,0-1.09-.39c-.48,0-.78.22-.78.56s.23.5.91.68c.88.22,1.4.57,1.4,1.31s-.81,1.28-1.67,1.28a2.34,2.34,0,0,1-1.59-.55l.41-.47a1.77,1.77,0,0,0,1.17.43c.55,0,.9-.25.9-.62s-.21-.6-1-.82-1.27-.63-1.27-1.23.64-1.15,1.52-1.15A2.26,2.26,0,0,1,342.53,176.42Z"/><path d="M346.85,178.4h-2.68c.07,1,.53,1.35,1.13,1.35a1.76,1.76,0,0,0,1.1-.37l.32.44a2.3,2.3,0,0,1-1.47.53c-1.18,0-1.87-.83-1.87-2.16s.67-2.25,1.76-2.25,1.73.79,1.73,2.08C346.87,178.16,346.86,178.3,346.85,178.4Zm-.71-.6c0-.82-.33-1.28-1-1.28s-.93.4-1,1.33h2Z"/><path d="M350.33,176l-.13.72a1.44,1.44,0,0,0-.37-.05c-.53,0-.83.38-1,1.18v2.41h-.73V176h.63l.07.85a1.21,1.21,0,0,1,1.13-.95A1.84,1.84,0,0,1,350.33,176Z"/><circle class="cls-6" cx="336" cy="197" r="12"/><path d="M336,186a11,11,0,1,1-11,11,11,11,0,0,1,11-11m0-2a13,13,0,1,0,13,13,13,13,0,0,0-13-13Z"/><path class="cls-2" d="M332.93,200.65v-6.37h1.68l.13.73a2.6,2.6,0,0,1,2-.94c1.13,0,1.75.69,1.75,1.9v4.68h-1.92v-4.14c0-.76-.13-1-.6-1s-.74.29-1.1.77v4.4Z"/><g class="cls-7"><path class="cls-8" d="M69.92,67.75a69.8,69.8,0,0,0-45.85,63V138"/><polygon class="cls-9" points="67.04 63.55 76.78 65.65 70.09 73.04 67.04 63.55"/></g><path class="cls-8" d="M255.75,142.82c-1.16-40.09-12.11-59.39-23.65-68.74a69.51,69.51,0,0,0-41.32-15.51H183.5"/><polygon class="cls-9" points="260.69 141.28 255.85 150 250.72 141.45 260.69 141.28"/><path class="cls-8" d="M321.78,143.25c-2.49-39.93-25.66-57.88-40.78-68.74-12.76-9.16-41.14-15-55.72-15.51H218"/><polygon class="cls-9" points="326.67 141.62 322 150.43 316.71 141.98 326.67 141.62"/></g></svg>